<mxfile host="drawio-plugin" modified="2021-06-27T03:11:14.807Z" agent="5.0 (Macintosh; Intel Mac OS X 11_2_2) AppleWebKit/537.36 (KHTML, like Gecko) Chrome/87.0.4280.141 Safari/537.36" etag="Q4wl9K6QbwsrXvdGx1W9" version="14.7.4" type="embed"><diagram id="kgpKYQtTHZ0yAKxKKP6v" name="Page-1"><mxGraphModel dx="923" dy="481" grid="1" gridSize="10" guides="1" tooltips="1" connect="1" arrows="1" fold="1" page="1" pageScale="1" pageWidth="850" pageHeight="1100" math="0" shadow="0"><root><mxCell id="0"/><mxCell id="1" parent="0"/><mxCell id="3nuBFxr9cyL0pnOWT2aG-1" value=":main" style="shape=umlLifeline;perimeter=lifelinePerimeter;container=1;collapsible=0;recursiveResize=0;rounded=0;shadow=0;strokeWidth=1;" parent="1" vertex="1"><mxGeometry x="120" y="80" width="100" height="640" as="geometry"/></mxCell><mxCell id="3nuBFxr9cyL0pnOWT2aG-2" value="" style="points=[];perimeter=orthogonalPerimeter;rounded=0;shadow=0;strokeWidth=1;" parent="3nuBFxr9cyL0pnOWT2aG-1" vertex="1"><mxGeometry x="45" y="40" width="10" height="370" as="geometry"/></mxCell><mxCell id="3nuBFxr9cyL0pnOWT2aG-3" value="m: TorchM5()" style="verticalAlign=bottom;startArrow=oval;endArrow=block;startSize=8;shadow=0;strokeWidth=1;" parent="3nuBFxr9cyL0pnOWT2aG-1" target="3nuBFxr9cyL0pnOWT2aG-2" edge="1"><mxGeometry relative="1" as="geometry"><mxPoint x="-60" y="70" as="sourcePoint"/></mxGeometry></mxCell><mxCell id="3nuBFxr9cyL0pnOWT2aG-5" value=":TorchM5" style="shape=umlLifeline;perimeter=lifelinePerimeter;container=1;collapsible=0;recursiveResize=0;rounded=0;shadow=0;strokeWidth=1;" parent="1" vertex="1"><mxGeometry x="300" y="80" width="100" height="640" as="geometry"/></mxCell><mxCell id="3nuBFxr9cyL0pnOWT2aG-6" value="" style="points=[];perimeter=orthogonalPerimeter;rounded=0;shadow=0;strokeWidth=1;" parent="3nuBFxr9cyL0pnOWT2aG-5" vertex="1"><mxGeometry x="45" y="80" width="10" height="400" as="geometry"/></mxCell><mxCell id="3nuBFxr9cyL0pnOWT2aG-8" value="__init__(train, test, bundle)" style="verticalAlign=bottom;endArrow=block;entryX=0;entryY=0;shadow=0;strokeWidth=1;" parent="1" source="3nuBFxr9cyL0pnOWT2aG-2" target="3nuBFxr9cyL0pnOWT2aG-6" edge="1"><mxGeometry relative="1" as="geometry"><mxPoint x="275" y="160" as="sourcePoint"/></mxGeometry></mxCell><mxCell id="3nuBFxr9cyL0pnOWT2aG-9" value="return" style="verticalAlign=bottom;endArrow=block;shadow=0;strokeWidth=1;dashed=1;" parent="1" source="3nuBFxr9cyL0pnOWT2aG-6" edge="1"><mxGeometry relative="1" as="geometry"><mxPoint x="240" y="200" as="sourcePoint"/><mxPoint x="180" y="190" as="targetPoint"/><Array as="points"><mxPoint x="240" y="190"/></Array></mxGeometry></mxCell><mxCell id="2" value=":Runner" style="shape=umlLifeline;perimeter=lifelinePerimeter;container=1;collapsible=0;recursiveResize=0;rounded=0;shadow=0;strokeWidth=1;" vertex="1" parent="1"><mxGeometry x="480" y="80" width="100" height="640" as="geometry"/></mxCell><mxCell id="3" value="" style="points=[];perimeter=orthogonalPerimeter;rounded=0;shadow=0;strokeWidth=1;" vertex="1" parent="2"><mxGeometry x="45" y="140" width="10" height="410" as="geometry"/></mxCell><mxCell id="6" value="r: Runner()" style="verticalAlign=bottom;startArrow=oval;endArrow=block;startSize=8;shadow=0;strokeWidth=1;" edge="1" parent="1"><mxGeometry relative="1" as="geometry"><mxPoint x="60" y="210" as="sourcePoint"/><mxPoint x="165" y="210" as="targetPoint"/></mxGeometry></mxCell><mxCell id="9" value="return" style="verticalAlign=bottom;endArrow=block;shadow=0;strokeWidth=1;dashed=1;" edge="1" parent="1"><mxGeometry x="0.015" relative="1" as="geometry"><mxPoint x="525.17" y="250" as="sourcePoint"/><mxPoint x="180" y="250" as="targetPoint"/><Array as="points"><mxPoint x="420.16999999999996" y="250"/></Array><mxPoint as="offset"/></mxGeometry></mxCell><mxCell id="10" value="r" style="verticalAlign=bottom;startArrow=oval;endArrow=block;startSize=8;shadow=0;strokeWidth=1;" edge="1" parent="1"><mxGeometry relative="1" as="geometry"><mxPoint x="60" y="290" as="sourcePoint"/><mxPoint x="165" y="290" as="targetPoint"/></mxGeometry></mxCell><mxCell id="12" value="__init__(m, bundle)" style="verticalAlign=bottom;endArrow=block;shadow=0;strokeWidth=1;" edge="1" parent="1"><mxGeometry relative="1" as="geometry"><mxPoint x="180" y="220.0000000000008" as="sourcePoint"/><mxPoint x="520" y="220" as="targetPoint"/><mxPoint as="offset"/></mxGeometry></mxCell><mxCell id="13" value="r.train()" style="verticalAlign=bottom;endArrow=block;shadow=0;strokeWidth=1;" edge="1" parent="1"><mxGeometry relative="1" as="geometry"><mxPoint x="180" y="300.0000000000008" as="sourcePoint"/><mxPoint x="520" y="300" as="targetPoint"/><mxPoint as="offset"/></mxGeometry></mxCell><mxCell id="14" value="for epochs" style="shape=umlFrame;whiteSpace=wrap;html=1;width=80;height=20;" vertex="1" parent="1"><mxGeometry x="300" y="310" width="300" height="200" as="geometry"/></mxCell><mxCell id="15" value="__init__(m, bundle)" style="verticalAlign=bottom;endArrow=block;shadow=0;strokeWidth=1;endSize=6;targetPerimeterSpacing=0;sourcePerimeterSpacing=0;startSize=6;" edge="1" parent="1"><mxGeometry relative="1" as="geometry"><mxPoint x="520" y="400" as="sourcePoint"/><mxPoint x="360" y="399.67" as="targetPoint"/><mxPoint as="offset"/></mxGeometry></mxCell></root></mxGraphModel></diagram></mxfile>